<svg width="129" height="44" viewBox="0 0 129 44" xmlns="http://www.w3.org/2000/svg"><g fill="none" fill-rule="nonzero"><path d="M66.074 31.262c0 .08-.015.151-.046.21-.03.061-.095.111-.196.151-.1.04-.241.07-.422.09-.181.022-.423.03-.724.03a5.42 5.42 0 0 1-.641-.03 1.417 1.417 0 0 1-.4-.097.552.552 0 0 1-.234-.189 1.208 1.208 0 0 1-.143-.302l-1.794-4.598a16.894 16.894 0 0 0-.655-1.438 4.586 4.586 0 0 0-.807-1.131 3.334 3.334 0 0 0-1.101-.74c-.422-.176-.93-.262-1.522-.262h-1.732v8.306c0 .08-.023.151-.069.21a.447.447 0 0 1-.21.144 2.015 2.015 0 0 1-.393.09 4.51 4.51 0 0 1-.626.038c-.252 0-.46-.013-.626-.037a2.219 2.219 0 0 1-.4-.091.398.398 0 0 1-.211-.144.369.369 0 0 1-.061-.21v-18.06c0-.393.103-.666.309-.822.206-.156.424-.234.655-.234h4.146a16.61 16.61 0 0 1 2.11.121c.753.132 1.42.337 1.998.619a4.747 4.747 0 0 1 1.455 1.07c.392.433.686.928.882 1.486.196.557.293 1.173.293 1.847 0 .653-.088 1.238-.264 1.757a4.228 4.228 0 0 1-.761 1.371c-.332.398-.73.742-1.191 1.033-.463.292-.98.537-1.554.739.322.142.614.32.875.535.26.216.505.475.73.776.227.303.44.65.641 1.042.202.39.402.834.604 1.327l1.748 4.295c.14.362.23.616.272.762.044.142.065.255.065.336zm-3.905-13.705c0-.763-.172-1.41-.513-1.937-.341-.527-.914-.906-1.718-1.138a5.01 5.01 0 0 0-.852-.15 13.59 13.59 0 0 0-1.243-.046h-2.186v6.572h2.533c.683 0 1.274-.082 1.77-.248.498-.167.913-.397 1.244-.694.332-.297.576-.646.732-1.048.156-.4.233-.837.233-1.31zm18.408 6.348c0 .392-.099.67-.295.836a1.022 1.022 0 0 1-.674.248h-8.936c0 .754.074 1.431.227 2.034.152.604.404 1.122.757 1.554.354.432.813.764 1.377.996.567.231 1.258.345 2.076.345.648 0 1.223-.052 1.728-.158.505-.105.941-.223 1.31-.354.37-.13.671-.248.909-.353.238-.107.417-.159.538-.159a.338.338 0 0 1 .319.211c.029.07.053.168.068.294.015.127.023.279.023.46a2.91 2.91 0 0 1-.053.595.635.635 0 0 1-.076.204.828.828 0 0 1-.136.173c-.055.056-.218.146-.49.272-.27.125-.622.248-1.055.369-.432.12-.932.228-1.5.325-.568.095-1.174.143-1.817.143-1.116 0-2.094-.156-2.932-.468a5.439 5.439 0 0 1-2.118-1.386c-.572-.613-1.006-1.381-1.296-2.306-.293-.925-.438-2.001-.438-3.228 0-1.165.152-2.213.453-3.143.301-.929.737-1.719 1.303-2.366a5.694 5.694 0 0 1 2.059-1.493c.804-.347 1.703-.52 2.697-.52 1.065 0 1.972.17 2.722.512.75.341 1.365.802 1.847 1.38a5.53 5.53 0 0 1 1.061 2.035c.227.78.34 1.61.34 2.496v.452h.002zm-2.503-.74c.03-1.306-.26-2.33-.872-3.075-.612-.744-1.52-1.115-2.724-1.115-.617 0-1.158.114-1.622.346a3.514 3.514 0 0 0-1.168.92 4.205 4.205 0 0 0-.728 1.334 5.556 5.556 0 0 0-.29 1.59h7.404zm17.97 8.113c0 .08-.02.148-.06.203a.475.475 0 0 1-.196.143c-.091.04-.216.07-.377.09a4.69 4.69 0 0 1-.604.03c-.251 0-.458-.01-.618-.03-.16-.02-.287-.05-.377-.09a.475.475 0 0 1-.196-.143.336.336 0 0 1-.061-.203v-7.945c0-.775-.06-1.398-.181-1.871a3.851 3.851 0 0 0-.528-1.221 2.292 2.292 0 0 0-.897-.784c-.367-.181-.79-.273-1.274-.273-.623 0-1.245.223-1.87.665-.623.442-1.276 1.09-1.96 1.944v9.484a.34.34 0 0 1-.06.203.468.468 0 0 1-.197.143c-.09.04-.216.07-.377.09-.16.022-.367.03-.617.03-.242 0-.444-.01-.604-.03a1.45 1.45 0 0 1-.383-.09.421.421 0 0 1-.198-.143.357.357 0 0 1-.053-.203V17.709a.42.42 0 0 1 .046-.204.395.395 0 0 1 .18-.15.99.99 0 0 1 .347-.09c.14-.015.326-.023.558-.023.221 0 .406.008.55.023a.909.909 0 0 1 .34.09c.08.045.137.095.173.15a.377.377 0 0 1 .053.204v1.794c.764-.855 1.524-1.48 2.283-1.876.76-.398 1.525-.596 2.3-.596.903 0 1.665.154 2.282.46a4.123 4.123 0 0 1 1.5 1.228c.383.513.656 1.113.823 1.801.167.688.248 1.515.248 2.48v8.278h.005zm15.874-12.951c0 .352-.047.605-.143.761-.095.157-.218.234-.369.234h-1.946c.353.362.6.76.74 1.198.141.437.21.892.21 1.365 0 .784-.124 1.477-.376 2.08a4.17 4.17 0 0 1-1.078 1.53 4.837 4.837 0 0 1-1.667.959c-.643.22-1.356.33-2.14.33a5.55 5.55 0 0 1-1.575-.218c-.498-.146-.882-.329-1.153-.55-.181.18-.33.387-.444.618a1.761 1.761 0 0 0-.174.799c0 .351.163.643.489.874.327.231.762.358 1.304.377l3.544.15c.673.023 1.29.115 1.855.28.562.166 1.05.402 1.462.709.412.306.734.683.965 1.13.232.448.347.968.347 1.56 0 .623-.131 1.216-.392 1.78a4.093 4.093 0 0 1-1.197 1.485c-.539.427-1.226.763-2.059 1.01-.834.247-1.82.369-2.955.369-1.095 0-2.028-.092-2.796-.278-.77-.187-1.4-.44-1.892-.76-.492-.323-.85-.707-1.07-1.154a3.232 3.232 0 0 1-.332-1.456c0-.332.04-.654.12-.965.08-.31.204-.608.37-.888.165-.282.37-.55.618-.807a7.86 7.86 0 0 1 .851-.76c-.493-.252-.858-.568-1.093-.95a2.297 2.297 0 0 1-.354-1.237c0-.613.126-1.161.377-1.644a5.5 5.5 0 0 1 .934-1.297 4.443 4.443 0 0 1-.739-1.259c-.18-.467-.27-1.032-.27-1.694 0-.775.13-1.468.39-2.081a4.4 4.4 0 0 1 1.086-1.553 4.76 4.76 0 0 1 1.666-.973 6.413 6.413 0 0 1 2.118-.339c.411 0 .796.023 1.152.069.357.045.692.108 1.004.188h4.1c.17 0 .3.083.384.25.085.162.128.416.128.758zm-2.636 14.321c0-.583-.24-1.032-.718-1.35-.475-.315-1.122-.484-1.935-.503l-3.514-.12c-.321.25-.585.488-.79.714a3.89 3.89 0 0 0-.49.65c-.12.206-.204.409-.248.61-.045.2-.069.405-.069.617 0 .654.332 1.15.995 1.485.663.336 1.588.506 2.774.506.754 0 1.385-.074 1.893-.22.507-.145.916-.34 1.228-.58a2.12 2.12 0 0 0 .671-.83c.134-.31.203-.637.203-.979zM108.029 21.9c0-.925-.254-1.646-.761-2.163-.507-.517-1.229-.777-2.164-.777-.482 0-.901.08-1.258.242-.357.16-.655.382-.889.663a2.783 2.783 0 0 0-.527.971 3.839 3.839 0 0 0-.174 1.154c0 .894.254 1.598.76 2.11.509.512 1.22.769 2.135.769.492 0 .92-.077 1.282-.234.361-.156.66-.372.896-.648.237-.277.413-.597.528-.959.115-.362.172-.736.172-1.128zm16.735 9.393c0 .12-.04.21-.12.27a.83.83 0 0 1-.333.136c-.141.03-.347.046-.618.046-.26 0-.47-.017-.626-.046a.727.727 0 0 1-.339-.135c-.07-.061-.106-.15-.106-.271v-1.358a6.685 6.685 0 0 1-1.983 1.478c-.728.351-1.5.527-2.314.527-.714 0-1.36-.094-1.937-.28a4.168 4.168 0 0 1-1.476-.806 3.592 3.592 0 0 1-.95-1.297c-.227-.512-.34-1.094-.34-1.747 0-.764.157-1.427.469-1.991.31-.563.758-1.03 1.34-1.401.584-.373 1.296-.652 2.141-.837.844-.186 1.794-.279 2.85-.279h1.87v-1.055c0-.522-.056-.986-.165-1.388a2.36 2.36 0 0 0-.535-1.002 2.298 2.298 0 0 0-.958-.603c-.391-.137-.874-.204-1.447-.204-.612 0-1.163.074-1.65.219a8.9 8.9 0 0 0-1.282.482c-.368.177-.674.338-.92.482-.247.146-.43.219-.551.219-.08 0-.15-.02-.21-.062a.5.5 0 0 1-.158-.18.967.967 0 0 1-.099-.308 2.719 2.719 0 0 1-.03-.415c0-.252.018-.451.054-.596a.864.864 0 0 1 .256-.415c.135-.131.369-.284.7-.46a7.636 7.636 0 0 1 1.147-.482c.43-.145.904-.266 1.417-.361a8.484 8.484 0 0 1 1.553-.143c.974 0 1.804.11 2.487.331.684.221 1.238.545 1.659.972.422.428.728.956.92 1.59.191.634.287 1.373.287 2.217v9.153h-.003zm-2.473-6.197h-2.125c-.684 0-1.277.06-1.78.174-.503.115-.92.288-1.251.513a2.142 2.142 0 0 0-.732.814 2.433 2.433 0 0 0-.234 1.094c0 .703.224 1.263.672 1.68.447.418 1.073.626 1.877.626.653 0 1.258-.165 1.815-.497.56-.333 1.144-.84 1.757-1.523v-2.88h.001zm5.978-11.298a1.855 1.855 0 0 1-.543 1.322 1.88 1.88 0 0 1-1.328.54c-.27 0-.519-.047-.745-.14a1.722 1.722 0 0 1-.969-.968 1.928 1.928 0 0 1-.138-.744 1.845 1.845 0 0 1 1.872-1.851c.268 0 .518.045.745.137.227.092.422.22.585.383.164.164.292.36.384.584.09.225.137.47.137.737zm-.428.03c0-.226-.035-.43-.107-.615a1.414 1.414 0 0 0-.298-.473 1.266 1.266 0 0 0-.452-.303 1.517 1.517 0 0 0-.565-.105c-.22 0-.417.038-.594.114a1.37 1.37 0 0 0-.747.779 1.545 1.545 0 0 0-.103.564c0 .223.036.426.107.61.072.184.17.343.297.475.127.132.278.233.453.304.174.07.364.107.566.107.218 0 .417-.039.595-.115a1.372 1.372 0 0 0 .745-.777c.068-.178.103-.366.103-.566zm-.562.87a.078.078 0 0 1-.007.036c-.005.012-.017.02-.035.024a.675.675 0 0 1-.081.012 1.66 1.66 0 0 1-.143.004 1.44 1.44 0 0 1-.132-.004.277.277 0 0 1-.08-.018.106.106 0 0 1-.047-.032.144.144 0 0 1-.026-.06l-.1-.328a.554.554 0 0 0-.136-.246c-.053-.045-.13-.068-.237-.068h-.127v.666c0 .035-.015.059-.04.072a.55.55 0 0 1-.19.02.629.629 0 0 1-.195-.02c-.033-.013-.047-.037-.047-.072v-1.71c0-.069.018-.124.052-.164.035-.039.088-.06.158-.06h.547c.127 0 .239.011.336.034a.71.71 0 0 1 .248.105c.069.048.12.107.155.179a.565.565 0 0 1 .053.255c0 .152-.04.27-.123.354a.684.684 0 0 1-.334.178.579.579 0 0 1 .214.13c.068.06.124.15.17.27l.115.305c.021.073.032.119.032.138zm-.59-1.318a.305.305 0 0 0-.015-.1.172.172 0 0 0-.055-.083.278.278 0 0 0-.107-.055.608.608 0 0 0-.167-.02h-.219v.533h.21c.133 0 .225-.025.276-.076a.27.27 0 0 0 .077-.2zM.637 11.51c0-.895.655-1.954 1.453-2.354L18.856.746c.798-.4 2.106-.4 2.905 0l16.767 8.41c.799.4 1.453 1.46 1.453 2.353v20.815c0 .894-.654 1.954-1.453 2.354l-16.767 8.41c-.798.401-2.106.401-2.905 0L2.09 34.678c-.798-.4-1.453-1.46-1.453-2.354V11.51z" fill="#697C8C"/><path d="M39.188 9.675l-6.1 3.06c-.644.323-1.772.323-2.417 0h-.002l-9.152-4.592 7.494-3.76-1.208-.606L9.92 12.748c-.648.31-1.759.306-2.393-.013L1.428 9.676a3.152 3.152 0 0 0-.587.918l6.2 3.11c.614.309 1.154 1.182 1.154 1.87v11.651L.636 23.433v1.213l17.975 9.016c.614.308 1.154 1.182 1.154 1.87v7.803a4.03 4.03 0 0 0 1.083 0v-7.803c0-.688.54-1.561 1.154-1.87l9.334-4.68v9.302l1.083-.544v-9.626-.015-12.526c0-.688.54-1.561 1.154-1.87l6.2-3.111a3.12 3.12 0 0 0-.585-.917z" fill="#FFF"/><path d="M19.097 32.694c.645.324 1.776.324 2.42 0l8.691-4.359c.13-.068.257-.162.375-.275l-10.277-5.155L10.03 28.06c.114.109.236.2.36.268l8.707 4.366zm1.752-10.73l10.344 5.19c.09-.228.143-.46.143-.675V15.573c0-.688-.54-1.561-1.154-1.87l-8.665-4.348a2.372 2.372 0 0 0-.669-.201v12.81h.001zM9.28 26.48c0 .214.051.447.142.675l10.344-5.19V9.154a2.355 2.355 0 0 0-.635.185l-8.698 4.364c-.009.004-.018.008-.025.013-.605.32-1.129 1.179-1.129 1.857v10.906z" fill="#FA6060"/></g></svg>