<svg xmlns="http://www.w3.org/2000/svg" xmlns:xlink="http://www.w3.org/1999/xlink" width="323" height="82">
  <defs>
    <path id="a" d="M0 0h323v82H0z"/>
  </defs>
  <clipPath id="b">
    <use xlink:href="#a" overflow="visible"/>
  </clipPath>
  <path clip-path="url(#b)" fill="#697C8C" d="M94.695 49.895l-1.904-4.68c-.219-.536-.438-1.018-.656-1.444-.22-.427-.452-.805-.698-1.133-.246-.329-.512-.61-.796-.846-.285-.235-.603-.429-.953-.583.624-.219 1.188-.487 1.691-.805.504-.317.937-.692 1.297-1.125.361-.432.638-.93.829-1.494.191-.563.288-1.201.288-1.913 0-.733-.107-1.404-.32-2.011-.214-.607-.534-1.146-.961-1.617-.427-.47-.955-.859-1.584-1.166-.63-.306-1.354-.531-2.175-.673-.285-.033-.605-.063-.96-.09-.356-.027-.802-.042-1.338-.042H81.94c-.252 0-.49.085-.714.255-.224.169-.336.468-.336.895v19.668c0 .088.022.164.066.229.043.066.12.118.229.156s.255.071.435.099c.181.027.408.041.682.041.273 0 .5-.014.681-.041s.323-.061.427-.099.181-.09.23-.156c.049-.065.074-.142.074-.229v-9.046H85.6c.646 0 1.199.096 1.658.287s.859.46 1.199.805c.339.345.632.755.878 1.231.247.476.484.998.714 1.567l1.954 5.008c.044.131.096.24.156.328.06.088.145.156.254.205s.255.085.436.106c.181.022.413.033.697.033.329 0 .592-.011.788-.033.197-.021.351-.055.46-.099.109-.043.181-.098.214-.164.032-.065.049-.142.049-.229s-.022-.211-.065-.369c-.045-.157-.143-.433-.297-.826zm-6.296-10.401c-.542.181-1.185.271-1.929.271h-2.758v-7.158h2.381c.558 0 1.01.017 1.354.049s.654.088.927.164c.875.252 1.5.665 1.872 1.24.372.574.559 1.278.559 2.109 0 .515-.085.991-.255 1.428-.17.438-.435.818-.796 1.141-.361.324-.813.575-1.355.756zm20.924-1.839c-.525-.629-1.196-1.13-2.011-1.502-.815-.372-1.804-.559-2.964-.559-1.083 0-2.063.189-2.938.566-.876.378-1.623.919-2.241 1.625s-1.092 1.565-1.42 2.578c-.328 1.013-.493 2.154-.493 3.423 0 1.335.159 2.506.477 3.513.317 1.008.788 1.845 1.412 2.513.624.667 1.393 1.171 2.307 1.51.914.34 1.979.509 3.193.509.7 0 1.359-.052 1.979-.155.618-.104 1.162-.222 1.633-.354.471-.131.854-.265 1.149-.402.296-.137.474-.235.533-.295.061-.061.109-.123.148-.189.038-.065.065-.139.082-.222.017-.082.03-.175.041-.278.011-.104.017-.228.017-.37 0-.196-.009-.363-.025-.5s-.041-.244-.074-.32-.079-.134-.14-.173c-.061-.038-.13-.058-.206-.058-.133 0-.328.058-.586.173-.259.115-.589.244-.99.386-.401.143-.877.271-1.427.386s-1.177.173-1.881.173c-.891 0-1.645-.126-2.26-.378-.616-.252-1.117-.613-1.502-1.084-.385-.47-.66-1.034-.824-1.69-.165-.657-.248-1.396-.248-2.217h9.731c.274 0 .52-.09.733-.271.215-.181.322-.484.322-.911v-.493c0-.963-.124-1.868-.37-2.717s-.631-1.588-1.157-2.217zm-9.26 4.621c.022-.602.127-1.179.314-1.732.187-.553.451-1.037.792-1.453.342-.416.766-.75 1.272-1.001.507-.251 1.096-.377 1.768-.377 1.311 0 2.299.405 2.965 1.215s.982 1.926.95 3.349h-8.061zm27.361-2.881c.181.75.271 1.65.271 2.701v9.014c0 .088-.021.161-.065.222-.044.06-.115.112-.214.155-.098.044-.235.077-.41.099-.175.022-.394.033-.656.033-.274 0-.498-.011-.674-.033-.175-.021-.312-.055-.41-.099-.099-.043-.17-.096-.213-.155-.044-.061-.066-.134-.066-.222v-8.652c0-.843-.065-1.521-.196-2.036-.132-.515-.323-.958-.575-1.33s-.577-.657-.977-.854c-.399-.197-.862-.295-1.388-.295-.679 0-1.357.241-2.035.722-.679.482-1.391 1.188-2.135 2.118V51.11c0 .088-.021.161-.065.222-.044.06-.115.112-.214.155-.099.044-.235.077-.41.099-.175.022-.399.033-.673.033-.263 0-.482-.011-.657-.033-.175-.021-.314-.055-.418-.099-.104-.043-.176-.096-.214-.155-.038-.061-.058-.134-.058-.222V36.333c0-.087.017-.161.05-.221.032-.06.098-.115.196-.165s.225-.082.378-.098c.153-.017.355-.025.607-.025.24 0 .44.008.6.025.158.016.281.049.369.098s.15.104.188.165.058.134.058.221v1.954c.832-.93 1.661-1.612 2.487-2.044.826-.433 1.661-.649 2.504-.649.985 0 1.814.167 2.487.501s1.218.78 1.634 1.338c.414.558.713 1.213.894 1.962zm17.001-3.489h-4.466c-.339-.087-.703-.156-1.092-.205s-.807-.074-1.256-.074c-.832 0-1.601.123-2.307.369-.706.247-1.311.599-1.814 1.059-.503.459-.897 1.023-1.182 1.691-.285.668-.427 1.423-.427 2.266 0 .722.099 1.337.295 1.847.197.509.466.966.805 1.371-.405.416-.744.886-1.018 1.411s-.41 1.122-.41 1.79c0 .481.128.931.386 1.346.257.417.653.762 1.19 1.035-.351.273-.66.55-.928.829-.269.278-.493.571-.674.878s-.314.629-.401.969c-.088.339-.132.689-.132 1.051 0 .568.12 1.097.361 1.584.24.487.629.905 1.166 1.256.536.351 1.223.627 2.06.829.838.202 1.853.304 3.046.304 1.236 0 2.31-.134 3.218-.402.908-.268 1.655-.635 2.241-1.1.585-.466 1.021-1.004 1.305-1.617.285-.613.427-1.259.427-1.938 0-.646-.126-1.212-.377-1.699-.252-.486-.603-.897-1.051-1.231-.449-.333-.979-.591-1.593-.771s-1.286-.281-2.02-.304l-3.857-.164c-.592-.021-1.065-.158-1.421-.41s-.533-.569-.533-.952c0-.328.063-.618.188-.87s.287-.477.484-.674c.296.241.715.441 1.256.6.542.159 1.114.238 1.716.238.854 0 1.631-.12 2.331-.361.7-.24 1.306-.588 1.814-1.043.509-.454.9-1.009 1.174-1.666.273-.656.41-1.412.41-2.266 0-.514-.076-1.01-.229-1.486s-.422-.911-.805-1.305h2.118c.164 0 .298-.084.402-.254.104-.169.156-.446.156-.829 0-.372-.047-.648-.14-.829-.091-.182-.231-.273-.416-.273zM134 51.938c.131-.225.309-.46.533-.706s.512-.506.862-.78l3.825.132c.886.021 1.589.205 2.109.55.52.345.78.834.78 1.47 0 .371-.074.728-.222 1.066-.148.34-.392.641-.731.903-.339.263-.785.474-1.338.632-.553.159-1.239.238-2.061.238-1.291 0-2.298-.184-3.021-.55-.723-.367-1.083-.906-1.083-1.617 0-.23.024-.454.073-.673.052-.219.142-.441.274-.665zm6.559-9.809c-.126.394-.317.741-.575 1.042-.257.302-.582.537-.977.706-.394.17-.859.255-1.396.255-.996 0-1.771-.279-2.323-.838-.553-.558-.829-1.323-.829-2.298 0-.438.063-.856.189-1.256.125-.399.317-.752.574-1.059.257-.307.58-.547.969-.723.389-.175.846-.263 1.371-.263 1.018 0 1.803.282 2.355.846.553.564.829 1.349.829 2.356.001.427-.061.837-.187 1.232zm18.314-5.114c-.46-.465-1.062-.818-1.806-1.059-.745-.241-1.647-.361-2.709-.361-.569 0-1.133.052-1.691.156-.558.104-1.073.235-1.543.394-.471.159-.887.334-1.248.525s-.616.358-.764.5c-.148.143-.241.293-.279.452-.038.159-.057.375-.057.648 0 .164.011.315.033.452s.058.249.107.336c.049.088.106.153.172.197.065.044.142.066.229.066.131 0 .331-.079.6-.238.268-.158.602-.333 1.001-.525.399-.191.864-.366 1.396-.525.531-.158 1.13-.238 1.797-.238.624 0 1.149.074 1.576.222.427.147.774.367 1.042.657s.462.654.583 1.092c.12.438.181.941.181 1.51v1.149h-2.036c-1.149 0-2.183.102-3.103.304-.919.203-1.697.507-2.332.911-.635.405-1.122.914-1.461 1.527-.339.613-.509 1.335-.509 2.167 0 .712.124 1.347.37 1.904.246.559.591 1.029 1.034 1.412s.979.676 1.609.878c.629.203 1.333.304 2.11.304.886 0 1.727-.191 2.52-.574s1.513-.919 2.159-1.609v1.479c0 .131.039.229.115.295.076.065.2.115.369.147.17.033.396.05.682.05.295 0 .52-.017.673-.05.153-.032.273-.082.361-.147s.131-.164.131-.295V41.16c0-.919-.104-1.724-.312-2.414s-.541-1.266-1-1.731zm-1.379 10.499c-.668.744-1.305 1.297-1.913 1.658s-1.267.542-1.979.542c-.876 0-1.557-.228-2.044-.682-.487-.454-.73-1.064-.73-1.83 0-.449.084-.846.254-1.19.169-.345.435-.641.796-.887.361-.246.815-.433 1.362-.559.547-.125 1.193-.188 1.938-.188h2.315v3.136zm5.943-16.879c-.179-.179-.391-.317-.638-.418-.248-.1-.518-.15-.812-.15-.287 0-.554.052-.801.156-.247.104-.462.246-.645.428-.184.181-.328.395-.433.64-.105.246-.158.51-.158.793 0 .294.05.563.15.81.1.245.239.457.417.635s.391.318.638.42.518.153.811.153c.284 0 .549-.053.799-.158.248-.105.465-.249.647-.431s.327-.396.433-.643.158-.513.158-.796c0-.29-.05-.559-.15-.804-.099-.246-.239-.457-.416-.635zm-.011 2.084c-.074.191-.18.359-.316.503s-.301.258-.494.342c-.194.085-.41.127-.649.127-.221 0-.427-.039-.617-.116-.19-.078-.354-.188-.493-.332s-.246-.315-.324-.516c-.078-.2-.117-.422-.117-.664 0-.218.037-.422.111-.614.074-.191.181-.36.319-.505.138-.146.303-.26.495-.343s.407-.124.646-.124c.222 0 .427.038.616.114.191.075.355.186.493.329s.247.315.324.516.116.423.116.669c.001.217-.036.421-.11.614zm-.66-.148c-.053-.132-.115-.23-.188-.296s-.15-.112-.232-.14c.151-.038.272-.104.362-.195.09-.091.135-.22.135-.386 0-.107-.019-.199-.058-.277-.037-.078-.094-.143-.168-.194s-.164-.09-.27-.114-.228-.036-.366-.036h-.596c-.076 0-.133.021-.171.064-.038.044-.057.104-.057.179v1.861c0 .038.017.064.052.078s.105.021.213.021c.107 0 .175-.007.205-.021s.044-.04.044-.078v-.726h.14c.114 0 .2.025.257.075.057.05.105.14.146.267l.109.358c.007.027.017.049.028.064.013.016.03.028.052.036.023.009.053.015.088.019.037.003.084.005.143.005.066 0 .118-.002.156-.005.038-.004.067-.008.088-.013.021-.006.033-.014.039-.026.005-.012.008-.025.008-.039 0-.021-.012-.07-.037-.15l-.122-.331zm-.567-.736c-.055.055-.154.083-.3.083h-.228v-.581h.239c.072 0 .133.007.181.021s.087.034.116.06c.029.026.05.057.061.091.01.035.016.071.016.109-.001.089-.029.161-.085.217zm22.823 11.533c.279.618.419 1.349.419 2.191 0 .996-.184 1.883-.55 2.66-.367.777-.876 1.437-1.527 1.979-.651.541-1.418.949-2.299 1.223s-1.83.41-2.848.41c-.712 0-1.371-.06-1.979-.181-.607-.12-1.149-.268-1.626-.442-.476-.176-.875-.355-1.198-.542s-.548-.345-.673-.477c-.126-.131-.219-.298-.279-.5-.061-.203-.09-.474-.09-.813 0-.24.01-.44.033-.599.021-.159.054-.288.098-.386.044-.099.099-.167.164-.206.066-.038.143-.057.23-.057.152 0 .369.093.648.278.279.187.637.389 1.075.607.438.22.966.425 1.584.616s1.333.287 2.143.287c.613 0 1.174-.082 1.683-.246s.947-.396 1.313-.698c.367-.301.648-.67.846-1.107s.296-.937.296-1.494c0-.602-.138-1.116-.411-1.544-.273-.427-.635-.801-1.083-1.124-.449-.323-.961-.618-1.535-.887-.575-.269-1.163-.542-1.765-.821-.603-.279-1.188-.588-1.757-.928-.569-.339-1.078-.739-1.527-1.198-.449-.46-.813-.999-1.092-1.617-.279-.618-.418-1.36-.418-2.225 0-.887.161-1.677.484-2.373.322-.695.771-1.277 1.346-1.749.574-.47 1.259-.829 2.053-1.075.793-.246 1.649-.369 2.569-.369.47 0 .943.041 1.42.123.476.082.925.191 1.346.328.422.137.797.29 1.125.46.328.169.544.307.648.41.104.104.173.187.205.247.033.06.061.137.082.229.022.093.038.206.05.337.011.131.016.301.016.509 0 .197-.008.372-.024.525s-.041.282-.073.386c-.033.104-.08.181-.14.23-.061.049-.129.074-.205.074-.121 0-.31-.076-.566-.23-.258-.153-.572-.325-.944-.517-.372-.191-.813-.367-1.321-.525-.51-.158-1.081-.238-1.716-.238-.592 0-1.105.08-1.544.238-.438.159-.799.37-1.083.632-.285.263-.498.575-.641.936-.143.361-.213.745-.213 1.149 0 .591.137 1.1.41 1.527s.638.804 1.092 1.133c.454.328.971.629 1.552.903.58.274 1.171.55 1.772.829.603.279 1.193.586 1.773.919.58.334 1.097.728 1.552 1.183.455.455.821.992 1.1 1.61zm16.082-5.656c-.602-.689-1.354-1.215-2.257-1.576s-1.962-.542-3.177-.542c-1.259 0-2.359.203-3.301.607-.941.405-1.727.975-2.355 1.708-.63.733-1.1 1.606-1.412 2.619-.312 1.013-.468 2.121-.468 3.325 0 1.248.147 2.364.443 3.35.296.984.744 1.822 1.347 2.512.602.689 1.354 1.215 2.257 1.576.903.36 1.962.541 3.177.541 1.248 0 2.345-.205 3.292-.615.946-.41 1.734-.982 2.364-1.716.629-.733 1.103-1.605 1.42-2.618s.477-2.121.477-3.325c0-1.236-.151-2.347-.452-3.333-.302-.986-.753-1.823-1.355-2.513zm-1.267 8.373c-.177.712-.453 1.325-.828 1.839-.376.515-.855.914-1.441 1.198-.585.285-1.275.428-2.07.428-.873 0-1.602-.156-2.188-.469-.585-.312-1.052-.732-1.399-1.264s-.596-1.151-.745-1.863-.224-1.472-.224-2.282c0-.843.091-1.619.273-2.331.182-.711.461-1.327.836-1.847.376-.52.854-.922 1.434-1.207.579-.285 1.272-.427 2.079-.427.872 0 1.601.156 2.187.468.585.312 1.049.736 1.392 1.272.342.537.588 1.161.737 1.872.148.711.224 1.466.224 2.265-.001.854-.09 1.637-.267 2.348zm15.131-16.36c.017.148.024.326.024.534s-.011.375-.032.5c-.022.126-.047.228-.074.304-.027.077-.063.129-.106.156-.044.027-.099.041-.164.041-.077 0-.173-.025-.288-.074-.114-.049-.254-.104-.418-.165-.164-.06-.358-.115-.583-.164s-.484-.074-.78-.074c-.404 0-.749.065-1.034.197-.284.131-.515.337-.689.616-.175.279-.301.64-.378 1.083-.076.443-.114.982-.114 1.617v1.609h3.3c.088 0 .161.02.222.058.06.039.115.104.164.197.049.093.088.211.115.353.027.143.041.318.041.525 0 .394-.05.679-.148.854-.098.175-.229.263-.394.263h-3.3v12.954c0 .088-.022.161-.065.222-.044.06-.118.112-.222.155-.104.044-.244.077-.419.099-.175.022-.395.033-.657.033s-.481-.011-.656-.033c-.175-.021-.314-.055-.419-.099-.104-.043-.178-.096-.222-.155-.044-.061-.065-.134-.065-.222V38.156h-2.085c-.175 0-.307-.088-.394-.263-.088-.175-.132-.46-.132-.854 0-.208.011-.383.033-.525.021-.142.055-.26.099-.353.043-.093.098-.158.164-.197.065-.038.142-.058.229-.058h2.085v-1.527c0-1.028.096-1.913.287-2.651s.484-1.343.879-1.814c.394-.471.889-.818 1.485-1.042.597-.225 1.3-.337 2.109-.337.384 0 .756.036 1.117.107s.64.148.837.23.328.156.395.222c.065.065.12.15.164.254.042.104.072.229.089.377zm5.541 8.431v8.242c0 1.018.15 1.787.451 2.307s.84.779 1.617.779c.252 0 .477-.024.673-.073.197-.05.372-.102.525-.156s.285-.106.395-.156c.109-.049.208-.073.295-.073.055 0 .107.014.156.041.05.027.088.079.115.155.027.077.052.181.073.313.022.131.033.295.033.492 0 .317-.022.569-.065.755-.044.187-.109.323-.197.411s-.219.17-.394.246c-.176.076-.375.14-.6.188-.225.05-.463.091-.714.123-.252.033-.504.05-.756.05-.766 0-1.423-.102-1.97-.304-.548-.202-.996-.509-1.347-.92-.35-.41-.604-.93-.763-1.56-.159-.629-.238-1.371-.238-2.225v-8.635h-2.068c-.165 0-.296-.088-.395-.263-.099-.175-.147-.46-.147-.854 0-.208.014-.383.041-.525.027-.142.063-.26.106-.353.044-.093.102-.158.173-.197.07-.038.15-.058.237-.058h2.053v-3.513c0-.077.019-.148.058-.213.038-.066.109-.123.213-.172.104-.049.244-.085.419-.107.175-.021.394-.033.656-.033.273 0 .498.011.674.033.175.022.312.058.41.107s.17.106.214.172c.043.065.065.137.065.213v3.513h3.792c.088 0 .164.02.23.058.065.039.123.104.172.197.05.093.085.211.106.353.022.143.033.318.033.525 0 .394-.049.679-.147.854-.099.175-.23.263-.395.263h-3.789zm28.525-2.086c.038.055.058.131.058.23 0 .077-.011.17-.033.279-.021.109-.06.246-.114.41l-4.351 14.038c-.033.12-.085.219-.156.295-.071.077-.17.138-.296.181-.126.044-.298.074-.517.091-.22.016-.493.024-.821.024-.339 0-.624-.011-.854-.033-.229-.021-.413-.055-.55-.099-.137-.043-.238-.104-.304-.181-.065-.076-.115-.169-.148-.278l-3.103-10.721-.033-.147-.032.147-2.873 10.721c-.033.12-.085.219-.156.295-.071.077-.178.138-.32.181-.143.044-.325.074-.55.091-.225.016-.501.024-.829.024-.339 0-.615-.011-.829-.033-.213-.021-.389-.055-.525-.099-.137-.043-.238-.104-.304-.181-.065-.076-.115-.169-.147-.278l-4.318-14.038c-.055-.164-.093-.301-.114-.41-.022-.109-.033-.203-.033-.279 0-.099.021-.178.065-.238s.118-.109.222-.148c.104-.038.244-.063.419-.074s.389-.017.641-.017c.306 0 .552.008.738.025.187.016.328.043.427.082.099.038.17.093.214.164.043.071.082.156.114.254l3.563 12.182.032.148.033-.148 3.267-12.182c.022-.099.058-.183.107-.254.049-.071.123-.126.222-.164.098-.039.232-.066.401-.082.17-.017.392-.025.665-.025.263 0 .479.008.648.025.17.016.304.043.402.082.099.038.17.09.214.156.043.066.076.143.099.23l3.529 12.214.033.148.017-.148 3.513-12.182c.022-.099.058-.183.107-.254.049-.071.125-.126.229-.164.104-.039.246-.066.427-.082.181-.017.413-.025.698-.025.263 0 .473.006.632.017.158.011.284.039.377.082.094.045.159.094.197.148zm12.864.945c-.46-.465-1.063-.818-1.807-1.059s-1.647-.361-2.709-.361c-.569 0-1.133.052-1.69.156-.559.104-1.073.235-1.544.394s-.886.334-1.247.525-.616.358-.764.5c-.147.143-.241.293-.279.452s-.058.375-.058.648c0 .164.011.315.033.452.021.137.058.249.106.336.05.088.107.153.173.197.065.044.142.066.229.066.132 0 .331-.079.6-.238.268-.158.602-.333 1.001-.525.399-.191.865-.366 1.396-.525.531-.158 1.13-.238 1.798-.238.624 0 1.149.074 1.576.222.427.147.774.367 1.043.657.268.29.462.654.582 1.092.121.438.181.941.181 1.51v1.149h-2.035c-1.149 0-2.184.102-3.104.304-.919.203-1.696.507-2.331.911-.635.405-1.122.914-1.461 1.527-.34.613-.509 1.335-.509 2.167 0 .712.123 1.347.369 1.904.246.559.591 1.029 1.034 1.412s.979.676 1.609.878c.629.203 1.332.304 2.109.304.887 0 1.727-.191 2.52-.574.794-.383 1.514-.919 2.159-1.609v1.479c0 .131.038.229.115.295.076.065.199.115.369.147.17.033.396.05.682.05.295 0 .52-.017.673-.05.153-.032.273-.082.361-.147s.131-.164.131-.295V41.16c0-.919-.104-1.724-.312-2.414s-.54-1.266-.999-1.731zm-1.379 10.499c-.667.744-1.305 1.297-1.912 1.658s-1.268.542-1.979.542c-.876 0-1.557-.228-2.044-.682s-.73-1.064-.73-1.83c0-.449.085-.846.254-1.19.17-.345.436-.641.797-.887s.815-.433 1.362-.559c.547-.125 1.193-.188 1.938-.188h2.314v3.136zm16.294-10.811c.005.148.008.348.008.599 0 .241-.006.443-.017.607-.011.165-.032.293-.065.386-.033.093-.074.165-.123.214-.049.049-.118.074-.205.074-.088 0-.194-.025-.32-.074-.126-.049-.269-.099-.427-.148-.159-.049-.337-.096-.533-.14-.197-.043-.411-.065-.641-.065-.273 0-.542.055-.805.164s-.539.29-.829.542c-.29.252-.594.586-.911 1.001-.317.417-.668.925-1.051 1.527v9.72c0 .088-.021.161-.065.222-.044.06-.115.112-.214.155-.099.044-.235.077-.41.099-.175.022-.399.033-.673.033-.263 0-.482-.011-.657-.033-.175-.021-.314-.055-.418-.099-.104-.043-.176-.096-.214-.155-.038-.061-.058-.134-.058-.222V36.333c0-.087.017-.161.05-.221.032-.06.098-.115.196-.165s.225-.082.378-.098c.153-.017.355-.025.607-.025.24 0 .44.008.6.025.158.016.281.049.369.098s.15.104.188.165.058.134.058.221v2.151c.405-.591.785-1.072 1.142-1.445.355-.372.691-.665 1.009-.878.317-.213.633-.361.944-.443.313-.083.627-.124.944-.124.142 0 .304.008.484.025.181.016.369.046.566.09.196.044.375.093.533.147.158.055.271.11.337.165.065.055.109.106.131.156.022.049.041.112.058.189s.029.189.034.337zm14.891 3.168c-.246-.848-.632-1.587-1.157-2.216s-1.196-1.13-2.011-1.502c-.815-.372-1.804-.559-2.964-.559-1.083 0-2.063.189-2.938.566-.876.378-1.623.919-2.241 1.625s-1.092 1.565-1.42 2.578c-.328 1.013-.493 2.154-.493 3.423 0 1.335.159 2.506.477 3.513.317 1.008.788 1.845 1.412 2.513.624.667 1.393 1.171 2.307 1.51.914.34 1.979.509 3.193.509.7 0 1.359-.052 1.979-.155.618-.104 1.162-.222 1.633-.354.471-.131.854-.265 1.149-.402.296-.137.474-.235.533-.295.061-.061.109-.123.148-.189.038-.065.065-.139.082-.222.017-.082.03-.175.041-.278.011-.104.017-.228.017-.37 0-.196-.009-.363-.025-.5s-.041-.244-.074-.32-.079-.134-.14-.173c-.061-.038-.13-.058-.206-.058-.133 0-.328.058-.586.173-.259.115-.589.244-.99.386-.401.143-.877.271-1.427.386s-1.177.173-1.881.173c-.891 0-1.645-.126-2.26-.378-.616-.252-1.117-.613-1.502-1.084-.385-.47-.66-1.034-.824-1.69-.165-.657-.248-1.396-.248-2.217h9.731c.274 0 .52-.09.733-.271.215-.181.322-.484.322-.911v-.493c0-.964-.124-1.869-.37-2.718zm-10.417 2.405c.022-.602.127-1.179.314-1.732.187-.553.451-1.037.792-1.453.342-.416.766-.75 1.272-1.001.507-.251 1.096-.377 1.768-.377 1.311 0 2.299.405 2.965 1.215s.982 1.926.95 3.349h-8.061z"/>
  <g clip-path="url(#b)">
    <path fill="#697C8C" d="M23.594 29.652c0-.976.712-2.132 1.582-2.57l18.283-9.169c.868-.438 2.292-.438 3.165 0l18.283 9.169c.87.438 1.582 1.595 1.582 2.57v22.694c0 .975-.712 2.131-1.582 2.567l-18.283 9.17c-.873.44-2.297.44-3.165 0l-18.283-9.17c-.87-.438-1.582-1.595-1.582-2.567V29.652z"/>
    <path fill="#FFF" d="M65.629 27.648l-6.653 3.339c-.701.353-1.93.353-2.633 0h-.007l-9.976-5.005 8.172-4.104-1.316-.658c-2.762 1.385-19.494 9.775-19.5 9.783-.708.336-1.917.331-2.613-.017l-6.648-3.339c-.268.292-.486.638-.639 1l6.761 3.395c.671.342 1.259 1.292 1.259 2.041v12.701l-8.241-4.134v1.326l19.599 9.826c.67.338 1.259 1.293 1.259 2.041v8.51c.391.051.792.051 1.181 0v-8.51c0-.748.589-1.703 1.255-2.041l10.18-5.102v10.145l1.182-.595V47.759v-.015V34.084c0-.749.584-1.699 1.259-2.041l6.761-3.395c-.152-.362-.375-.708-.642-1z"/>
    <path fill="#FA6060" d="M43.721 52.754c.706.352 1.936.352 2.64 0l9.476-4.758c.145-.07.28-.176.408-.297L45.04 42.078l-11.204 5.621c.124.117.26.219.394.292l9.491 4.763zm1.911-11.704l11.278 5.661c.099-.248.156-.502.156-.736V34.084c0-.749-.588-1.699-1.259-2.041l-9.447-4.74c-.206-.102-.461-.175-.729-.221l.001 13.968zm-12.62 4.925c0 .234.061.488.161.736l11.278-5.661V27.082c-.255.041-.494.111-.695.204l-9.484 4.757c-.009.004-.017.012-.027.019-.658.343-1.232 1.281-1.232 2.022l-.001 11.891z"/>
  </g>
</svg>
